<?xml version="1.0" encoding="UTF-8"?>
<svg version="1.1" xmlns="http://www.w3.org/2000/svg" width="394" height="192">
<path d="M0 0 C0.91349685 0.00092179 1.82699369 0.00184359 2.76817226 0.00279331 C3.81290203 0.00141865 4.8576318 0.00004398 5.93402004 -0.00137234 C7.08991634 0.00222294 8.24581264 0.00581821 9.43673611 0.00952244 C10.64632488 0.00937641 11.85591366 0.00923038 13.10215664 0.00907993 C16.42846172 0.0096589 19.75470541 0.0146881 23.08099961 0.02165389 C26.55369751 0.02788805 30.02639615 0.02849128 33.49909878 0.0296793 C40.07936014 0.03279243 46.65960497 0.04100557 53.23985904 0.05102879 C61.46360331 0.06328457 69.68735023 0.06877252 77.91110134 0.0742197 C92.58754653 0.083971 107.26395561 0.10400126 121.94039822 0.12304783 C121.94039822 38.73304783 121.94039822 77.34304783 121.94039822 117.12304783 C90.9920604 117.1632115 90.9920604 117.1632115 75.75861931 117.1733017 C67.50385816 117.17885357 59.24910706 117.18591343 50.99435329 117.19848728 C44.46109318 117.20843419 37.92784063 117.21490127 31.39457315 117.21713632 C27.93318015 117.21844342 24.47180879 117.22152919 21.01042271 117.22877789 C17.15252295 117.2367919 13.29464465 117.23703896 9.43673611 117.23657322 C8.28083981 117.2401685 7.1249435 117.24376377 5.93402004 117.24746799 C4.88929028 117.24609333 3.84456051 117.24471867 2.76817226 117.24330235 C1.39792699 117.24468503 1.39792699 117.24468503 0 117.24609566 C-2.05960178 117.12304783 -2.05960178 117.12304783 -3.05960178 116.12304783 C-3.15748442 114.63253515 -3.1859196 113.13740078 -3.18658543 111.64367771 C-3.18940525 110.67612049 -3.19222507 109.70856327 -3.19513035 108.71168613 C-3.19310612 107.64151752 -3.19108189 106.57134892 -3.18899632 105.46875095 C-3.19074863 104.34855061 -3.19250095 103.22835026 -3.19430637 102.07420444 C-3.19872755 98.35088673 -3.19578596 94.62761607 -3.19241428 90.90429783 C-3.19308725 88.32979415 -3.19405721 85.75529054 -3.19531345 83.18078709 C-3.19679079 77.77693108 -3.19472932 72.37309293 -3.18997288 66.96923923 C-3.18453029 60.71343311 -3.18629296 54.45765957 -3.19179928 48.20185423 C-3.19687613 42.19453733 -3.19634886 36.18723643 -3.19341755 30.17991734 C-3.19274801 27.6185261 -3.19357762 25.05713403 -3.1958971 22.49574375 C-3.19842206 18.9229213 -3.19458524 15.3501624 -3.18899632 11.7773447 C-3.19102055 10.70717609 -3.19304478 9.63700748 -3.19513035 8.53440952 C-3.19231052 7.5668523 -3.1894907 6.59929508 -3.18658543 5.60241795 C-3.1862084 4.75658901 -3.18583138 3.91076008 -3.18544292 3.03929996 C-3.00841686 0.34362688 -2.69473786 0.16099308 0 0 Z M10.94039822 15.12304783 C10.94039822 43.83304783 10.94039822 72.54304783 10.94039822 102.12304783 C42.95039822 102.12304783 74.96039822 102.12304783 107.94039822 102.12304783 C107.94039822 73.41304783 107.94039822 44.70304783 107.94039822 15.12304783 C75.93039822 15.12304783 43.92039822 15.12304783 10.94039822 15.12304783 Z " fill="#191919" transform="translate(10.059601783752441,59.876952171325684)"/>
<path d="M0 0 C5.09418032 4.18854826 7.46559626 8.45130523 8.8125 14.875 C9.45088615 21.84404882 7.42762555 27.58845766 3 33 C-4.11812012 38.37490703 -10.28074867 38.74206394 -19 38 C-25.21447259 36.20773831 -28.92366868 32.75129003 -32.05078125 27.1015625 C-34.89050586 20.81443559 -34.19250631 14.61268896 -32.015625 8.23046875 C-29.75248024 3.26025468 -25.74501574 0.43334141 -21 -2 C-13.83516855 -4.13609882 -6.57900012 -3.59901538 0 0 Z M-20 9 C-23.01872504 12.01872504 -23.83354705 14.75544971 -24 19 C-22.78723561 23.20900581 -21.84781692 25.36906648 -18.3125 28 C-14.17945848 29.24771065 -11.10681372 29.36893791 -7 28 C-3.43056167 25.41785313 -2.2311334 23.79452105 -1 19.5625 C-1 15.43608531 -1.74087001 13.4276455 -4 10 C-9.02021605 4.97978395 -14.26686017 5.30530989 -20 9 Z " fill="#1F1F1F" transform="translate(284,9)"/>
<path d="M0 0 C3.50625 -0.061875 7.0125 -0.12375 10.625 -0.1875 C11.71893066 -0.21481201 12.81286133 -0.24212402 13.93994141 -0.27026367 C19.37564669 -0.3166332 23.34775951 -0.15368225 28 3 C31.75945615 7.15518837 32.57868404 10.45645109 32.33203125 15.8828125 C31.70856598 19.85832043 29.77115404 22.22884596 27 25 C27.34917632 28.77745297 28.67149349 31.5638478 30.5625 34.8125 C31.01753906 35.60269531 31.47257812 36.39289062 31.94140625 37.20703125 C32.29074219 37.79871094 32.64007813 38.39039063 33 39 C28.85053843 39.60429052 25.12052747 39.88072343 21 39 C17.86057201 35.8260728 15 31.60570304 15 27 C13.35 27 11.7 27 10 27 C10 30.96 10 34.92 10 39 C6.7 39 3.4 39 0 39 C0 26.13 0 13.26 0 0 Z M10 8 C10 11.63 10 15.26 10 19 C11.423125 19.061875 12.84625 19.12375 14.3125 19.1875 C15.11300781 19.22230469 15.91351563 19.25710937 16.73828125 19.29296875 C19.0661478 19.18419397 19.0661478 19.18419397 20.76171875 17.64453125 C22.18830819 15.99698657 22.18830819 15.99698657 22.5 13.5 C22.22943654 10.83175894 22.22943654 10.83175894 19.9375 9.1875 C16.4483377 7.77698758 13.7303242 7.78056916 10 8 Z " fill="#1B1B1B" transform="translate(310,7)"/>
<path d="M0 0 C3.90623716 4.12325034 5.86795205 7.81128651 6.10546875 13.546875 C5.87926108 19.61259178 4.730859 23.78212956 0.72265625 28.40625 C-4.2593683 33.01546999 -9.77500952 33.54817966 -16.28125 33.3515625 C-21.76545091 32.64239859 -25.55013782 30.48801645 -29.375 26.5625 C-33.04801055 20.77044489 -33.80819404 15.79711911 -33 9 C-31.6262918 3.99205112 -29.38952289 0.92536958 -25.0625 -1.9375 C-16.84772104 -6.41417771 -7.29728026 -6.25481166 0 0 Z M-23 9 C-24.64918258 13.32688763 -24.37424686 16.15794457 -22.5 20.375 C-19.3721068 23.65928786 -17.49667094 24.46649667 -13 25 C-8.57894746 23.62295085 -6.58705363 22.88058044 -4 19 C-3.2941818 14.61736143 -3.51559567 11.01093078 -5.4375 7 C-11.75914562 2.06603269 -18.06864323 2.95908796 -23 9 Z " fill="#202020" transform="translate(364,89)"/>
<path d="M0 0 C4.26698933 5.38988126 5.36996414 9.88990828 5.28125 16.62109375 C4.66133312 21.86455739 2.29420887 25.73897598 -1.4375 29.375 C-7.49201005 33.2144454 -12.95274775 33.7994782 -20 33 C-25.31673007 31.36612116 -29.0391214 28.78295774 -32 24 C-34.33509461 18.74603712 -35.10423728 13.39427481 -33.3125 7.88671875 C-30.90711578 2.56480616 -27.69148382 -1.43911889 -22.15234375 -3.78125 C-14.08283567 -6.21974946 -6.75956706 -4.90399963 0 0 Z M-22 7 C-24.14268559 10.21402838 -25 12.18954927 -25 16.0625 C-23.72001189 19.82246507 -22.09526726 21.53785559 -19 24 C-15.52168066 25.46455551 -14.04453099 25.01305219 -10.375 23.9375 C-6.40002031 21.65556721 -5.3391963 20.35238799 -4 16 C-3.91701945 11.27010876 -4.47194572 9.57717561 -7.6875 6.0625 C-13.05649589 2.71954029 -17.07615531 3.0076935 -22 7 Z " fill="#212121" transform="translate(268,89)"/>
<path d="M0 0 C4.73500593 4.68367795 6.17392995 8.59085583 6.375 15.1875 C6.30594703 21.38845683 5.46061669 25.56119562 1 30 C-4.19518603 34.21134017 -9.71723887 34.57449542 -16.234375 34.3125 C-22.65575162 33.58692072 -25.83666071 30.46320923 -29.80078125 25.71875 C-33.16930886 20.89089284 -32.6179033 14.60374375 -32 9 C-30.32105324 4.32454735 -27.72185728 1.15843413 -23.5 -1.4375 C-15.62960625 -4.95106864 -7.37676275 -4.86195727 0 0 Z M-21 8 C-23.56570589 11.42094119 -23.43708054 14.84773484 -23 19 C-20.94509114 22.69883596 -19.47924155 23.7995899 -15.5625 25.4375 C-11.70149562 26.04713227 -10.28395799 26.04137929 -7 24 C-3.9751268 21.22038679 -2.7123084 19.0457904 -2.4375 15 C-2.60132447 11.53347416 -3.0350284 10.9566754 -5.375 8.0625 C-10.6987715 3.87953668 -15.5367858 3.7508334 -21 8 Z " fill="#202020" transform="translate(335,142)"/>
<path d="M0 0 C2.95633722 2.04128046 4.76214068 3.73161729 6.625 6.8125 C6.875 10.125 6.875 10.125 6.625 12.8125 C3.655 12.8125 0.685 12.8125 -2.375 12.8125 C-3.035 11.4925 -3.695 10.1725 -4.375 8.8125 C-8.4615191 7.6484809 -8.4615191 7.6484809 -12.375 8.8125 C-13.02713292 10.83713255 -13.02713292 10.83713255 -13.375 12.8125 C-12.67375 12.97105469 -11.9725 13.12960938 -11.25 13.29296875 C-3.78386537 15.12906979 3.20154411 17.17731616 7.625 23.8125 C8.09472834 28.58807141 8.09549228 30.87151543 5.9375 35.1875 C2.86420136 38.67610927 0.32363903 39.63646339 -4.27734375 40.11328125 C-11.58563135 40.14149858 -16.31714407 39.78988604 -21.75 34.5 C-23.66095853 31.33956859 -23.71270059 29.44278129 -23.375 25.8125 C-20.405 25.8125 -17.435 25.8125 -14.375 25.8125 C-13.715 27.1325 -13.055 28.4525 -12.375 29.8125 C-9.66620665 31.16689668 -7.36566732 30.87751451 -4.375 30.8125 C-4.045 29.4925 -3.715 28.1725 -3.375 26.8125 C-6.84836254 24.94222786 -10.15650998 23.56221793 -13.9375 22.5 C-18.78029236 20.91300386 -20.7860325 19.23879928 -23.375 14.8125 C-24.2364035 11.24586235 -24.17976184 8.30377297 -22.41796875 5.0390625 C-16.83858993 -2.22298612 -8.2525121 -2.90366166 0 0 Z " fill="#232323" transform="translate(132.375,7.1875)"/>
<path d="M0 0 C2.57678787 3.03928825 3.90332747 4.88826592 4.25 8.875 C4.1675 9.57625 4.085 10.2775 4 11 C1.03 11 -1.94 11 -5 11 C-5.66 9.68 -6.32 8.36 -7 7 C-9.91004903 5.91776634 -9.91004903 5.91776634 -13 6 C-14.89958081 7.31318262 -14.89958081 7.31318262 -16 9 C-13.46083439 12.09077745 -10.9097582 12.83793808 -7.125 13.9375 C-2.69747198 15.34017514 0.75189097 16.52788345 4 20 C5.49756381 24.49269144 5.68518388 28.32510608 3.875 32.75 C0.69297595 36.56842886 -2.09977369 37.82351588 -7.0703125 38.28515625 C-18.30951929 38.57957738 -18.30951929 38.57957738 -23 35 C-25.73947331 31.50480992 -26.4914457 28.37356702 -27 24 C-23.7 24 -20.4 24 -17 24 C-16.34 25.32 -15.68 26.64 -15 28 C-10.40249903 29.18701 -10.40249903 29.18701 -6 28 C-5.97275735 26.04298023 -5.97275735 26.04298023 -7 24 C-10.06678362 22.62175976 -10.06678362 22.62175976 -13.75 21.625 C-21.72777174 19.04371997 -21.72777174 19.04371997 -24.375 16.1875 C-26.55352186 11.91424559 -26.60533739 9.76703197 -26 5 C-24.57821572 1.23645338 -23.37216271 0.21585437 -19.875 -1.8125 C-13.01532864 -4.34507909 -6.29789104 -3.70464179 0 0 Z " fill="#232323" transform="translate(182,9)"/>
<path d="M0 0 C4.455 -0.0928125 4.455 -0.0928125 9 -0.1875 C9.91910156 -0.21481201 10.83820313 -0.24212402 11.78515625 -0.27026367 C18.89873551 -0.34118594 24.55190455 0.65834348 29.875 5.75 C33.54816662 11.36778424 34.52065784 16.2415601 33.52734375 22.79296875 C32.50685422 27.0639064 31.01471761 30.51852675 27.39868164 33.17749023 C21.57056326 36.32404806 16.52273491 36.48207464 10 36.25 C6.7 36.1675 3.4 36.085 0 36 C0 24.12 0 12.24 0 0 Z M9 8 C9 14.6 9 21.2 9 28 C17.35815449 28.71665792 17.35815449 28.71665792 21.5625 26.0625 C24.40901098 22.48611441 24.85372749 20.6220531 24.50390625 16.15625 C23.62475393 12.39429589 22.22642035 11.06490902 19 9 C15.60742863 8.31112673 12.48276895 8.13931076 9 8 Z " fill="#1C1C1C" transform="translate(184,139)"/>
<path d="M0 0 C3.3 0 6.6 0 10 0 C13.7893861 8.06124317 17.13446145 16.24310132 20.3125 24.5625 C20.76689453 25.73619141 21.22128906 26.90988281 21.68945312 28.11914062 C22.11806641 29.23611328 22.54667969 30.35308594 22.98828125 31.50390625 C23.56896362 33.01706421 23.56896362 33.01706421 24.16137695 34.56079102 C25 37 25 37 25 39 C23.37581255 39.08090971 21.75048255 39.13914995 20.125 39.1875 C19.22007813 39.22230469 18.31515625 39.25710937 17.3828125 39.29296875 C16.20332031 39.14794922 16.20332031 39.14794922 15 39 C13 36 13 36 13 33 C8.05 33.33 3.1 33.66 -2 34 C-2.99 36.475 -2.99 36.475 -4 39 C-7.63 39 -11.26 39 -15 39 C-12.36205514 30.64187998 -9.09132953 22.5582885 -5.8125 14.4375 C-5.24780461 13.03330053 -4.68334957 11.62900437 -4.11914062 10.22460938 C-2.74886215 6.81528748 -1.37533859 3.40728428 0 0 Z M5 14 C4.32880451 15.4562545 3.66318193 16.91507867 3 18.375 C2.62875 19.18710937 2.2575 19.99921875 1.875 20.8359375 C0.87504987 22.91998433 0.87504987 22.91998433 1 25 C3.97 25 6.94 25 10 25 C8.68 21.37 7.36 17.74 6 14 C5.67 14 5.34 14 5 14 Z " fill="#1D1D1D" transform="translate(70,7)"/>
<path d="M0 0 C3.34125 -0.061875 6.6825 -0.12375 10.125 -0.1875 C11.68758545 -0.22846802 11.68758545 -0.22846802 13.28173828 -0.27026367 C18.61692223 -0.3179817 22.41591947 -0.05363592 27 3 C30.50662851 6.69118791 31.2842571 9.61208793 31.4375 14.5625 C31.26451845 18.81207996 30.94922661 21.74568099 28 25 C23.5035022 28.22825483 19.71379282 29.14284989 14.25 29.0625 C12.14625 29.0315625 12.14625 29.0315625 10 29 C10 32.3 10 35.6 10 39 C6.7 39 3.4 39 0 39 C0 26.13 0 13.26 0 0 Z M10 8 C10 11.96 10 15.92 10 20 C15.21648103 20.44308651 15.21648103 20.44308651 20 18.875 C21.45670212 16.14368353 21.32339354 14.03989923 21 11 C18.60236815 8.60236815 17.66726502 8.65719414 14.375 8.375 C12.93125 8.25125 11.4875 8.1275 10 8 Z " fill="#1C1C1C" transform="translate(11,7)"/>
<path d="M0 0 C3.3 -0.103125 6.6 -0.20625 10 -0.3125 C11.53527344 -0.38078003 11.53527344 -0.38078003 13.1015625 -0.45043945 C19.62709269 -0.54829715 24.00584021 0.69148731 29 5 C31.71595661 9.07393492 31.68781835 14.24398773 31 19 C28.97491196 22.90552693 26.83577853 25.79152145 23 28 C18.44790027 29.43065992 13.72308019 29.07049373 9 29 C9 32.3 9 35.6 9 39 C6.03 39 3.06 39 0 39 C0 26.13 0 13.26 0 0 Z M9 8 C9 11.96 9 15.92 9 20 C10.423125 20.061875 11.84625 20.12375 13.3125 20.1875 C14.11300781 20.22230469 14.91351563 20.25710937 15.73828125 20.29296875 C18.0564902 20.17188628 18.0564902 20.17188628 19.8125 18.71875 C21.38000239 16.8394877 21.38000239 16.8394877 20.6875 13.3125 C20.3471875 11.6728125 20.3471875 11.6728125 20 10 C15.9402698 8.48940272 13.45389333 8 9 8 Z " fill="#151515" transform="translate(205,7)"/>
<path d="M0 0 C3.01125 -0.061875 6.0225 -0.12375 9.125 -0.1875 C10.06230957 -0.21481201 10.99961914 -0.24212402 11.96533203 -0.27026367 C17.93179662 -0.32935645 22.08443026 0.5871147 26.8125 4.5 C29.57352978 7.98761657 29.28744224 11.76022695 29 16 C27.6875 19.375 27.6875 19.375 26 22 C25.01 22.33 24.02 22.66 23 23 C23.433125 23.77085937 23.86625 24.54171875 24.3125 25.3359375 C24.869375 26.33882812 25.42625 27.34171875 26 28.375 C26.556875 29.37273437 27.11375 30.37046875 27.6875 31.3984375 C29 34 29 34 29 36 C25.49504138 36.62341161 22.473259 36.87871373 19 36 C16.93096769 33.56149764 15.68208783 31.18700751 14.3515625 28.28515625 C13.90554688 27.53105469 13.45953125 26.77695313 13 26 C11.68 25.67 10.36 25.34 9 25 C9 28.63 9 32.26 9 36 C6.03 36 3.06 36 0 36 C0 24.12 0 12.24 0 0 Z M8 8 C8 11.3 8 14.6 8 18 C13.86350756 18.3754135 13.86350756 18.3754135 19 16 C20.08568503 14.15732132 20.08568503 14.15732132 20 12 C19.26929996 9.57817235 19.26929996 9.57817235 17 8 C13.92101234 7.65122972 11.11594876 7.81936529 8 8 Z " fill="#171717" transform="translate(358,139)"/>
<path d="M0 0 C2.97 0 5.94 0 9 0 C9 4.62 9 9.24 9 14 C13.29 14 17.58 14 22 14 C22 9.38 22 4.76 22 0 C24.97 0 27.94 0 31 0 C31 11.88 31 23.76 31 36 C28.03 36 25.06 36 22 36 C22 31.38 22 26.76 22 22 C17.71 22 13.42 22 9 22 C9 26.62 9 31.24 9 36 C6.03 36 3.06 36 0 36 C0 24.12 0 12.24 0 0 Z " fill="#1A1A1A" transform="translate(187,85)"/>
<path d="M0 0 C3.01125 -0.061875 6.0225 -0.12375 9.125 -0.1875 C10.06230957 -0.21481201 10.99961914 -0.24212402 11.96533203 -0.27026367 C17.07711326 -0.32089154 20.57815321 0.14206146 25 3 C27.94265179 6.24706405 28.918002 8.91352651 29.25 13.3125 C28.97336753 17.39282894 28.24271334 19.59726253 26 23 C20.65886577 27.07612875 15.53527714 27.12814269 9 27 C9 29.97 9 32.94 9 36 C6.03 36 3.06 36 0 36 C0 24.12 0 12.24 0 0 Z M9 8 C9 11.63 9 15.26 9 19 C11.165625 18.8453125 11.165625 18.8453125 13.375 18.6875 C14.18710938 18.62949219 14.99921875 18.57148437 15.8359375 18.51171875 C18.37921338 18.17009472 18.37921338 18.17009472 20 15 C19.91666667 12.41666667 19.91666667 12.41666667 19 10 C15.3558226 7.5705484 13.28758728 7.83820425 9 8 Z " fill="#1E1E1E" transform="translate(143,85)"/>
<path d="M0 0 C7.92 0 15.84 0 24 0 C24 2.64 24 5.28 24 8 C19.05 8 14.1 8 9 8 C9 9.98 9 11.96 9 14 C13.62 14 18.24 14 23 14 C23 16.64 23 19.28 23 22 C18.38 22 13.76 22 9 22 C9 24.31 9 26.62 9 29 C14.28 29 19.56 29 25 29 C25 31.31 25 33.62 25 36 C16.75 36 8.5 36 0 36 C0 24.12 0 12.24 0 0 Z " fill="#1E1E1E" transform="translate(143,139)"/>
<path d="M0 0 C11.22 0 22.44 0 34 0 C34 2.97 34 5.94 34 9 C30.04 9 26.08 9 22 9 C22 18.9 22 28.8 22 39 C18.7 39 15.4 39 12 39 C12 29.1 12 19.2 12 9 C8.04 9 4.08 9 0 9 C0 6.03 0 3.06 0 0 Z " fill="#1B1B1B" transform="translate(358,7)"/>
<path d="M0 0 C10.56 0 21.12 0 32 0 C32 2.97 32 5.94 32 9 C28.04 9 24.08 9 20 9 C20 17.91 20 26.82 20 36 C17.03 36 14.06 36 11 36 C11 27.09 11 18.18 11 9 C7.37 9 3.74 9 0 9 C0 6.03 0 3.06 0 0 Z " fill="#252525" transform="translate(258,139)"/>
<path d="M0 0 C10.56 0 21.12 0 32 0 C32 2.97 32 5.94 32 9 C28.37 9 24.74 9 21 9 C21 17.91 21 26.82 21 36 C18.03 36 15.06 36 12 36 C12 27.09 12 18.18 12 9 C8.04 9 4.08 9 0 9 C0 6.03 0 3.06 0 0 Z " fill="#242424" transform="translate(286,85)"/>
<path d="M0 0 C2.97 0 5.94 0 9 0 C9 11.88 9 23.76 9 36 C6.03 36 3.06 36 0 36 C0 24.12 0 12.24 0 0 Z " fill="#1E1E1E" transform="translate(234,139)"/>
<path d="M0 0 C0.66 0.33 1.32 0.66 2 1 C-0.31 3.31 -2.62 5.62 -5 8 C-5 5 -5 5 -2.5 2.3125 C-1.675 1.549375 -0.85 0.78625 0 0 Z " fill="#6A6A6A" transform="translate(339,87)"/>
</svg>
